<svg xmlns="http://www.w3.org/2000/svg" viewBox="0 0 1600 440" width="1600" height="440" fill="none" role="img" aria-hidden="true" preserveAspectRatio="xMidYMid slice"><title>tariff banner artwork</title><defs><pattern id="dots" width="34" height="34" patternUnits="userSpaceOnUse"><circle cx="2" cy="2" r="1.6" fill="#a9d2f5"/></pattern><linearGradient id="fade" x1="0" y1="0" x2="1" y2="0"><stop offset="0" stop-color="#000"/><stop offset=".55" stop-color="#777"/><stop offset="1" stop-color="#fff"/></linearGradient><mask id="fademask"><rect width="1600" height="440" fill="url(#fade)"/></mask></defs><rect width="1600" height="440" fill="url(#dots)" opacity=".5" mask="url(#fademask)"/><circle cx="1420" cy="-70" r="330" stroke="#a9d2f5" stroke-width="1.6" stroke-opacity="0.432" fill="none"/><circle cx="1420" cy="-70" r="470" stroke="#a9d2f5" stroke-width="1.6" stroke-opacity="0.351" fill="none"/><circle cx="1420" cy="-70" r="620" stroke="#a9d2f5" stroke-width="1.6" stroke-opacity="0.27" fill="none"/><circle cx="1420" cy="-70" r="790" stroke="#a9d2f5" stroke-width="1.6" stroke-opacity="0.189" fill="none"/><g transform="translate(1150 220) scale(.82) translate(-1150 -220)"><rect x="1180" y="120" width="250" height="250" rx="14" stroke="#a9d2f5" stroke-width="2.0" stroke-opacity="0.432" fill="none"/><rect x="1130" y="100" width="250" height="250" rx="14" stroke="#a9d2f5" stroke-width="2.0" stroke-opacity="0.594" fill="none"/><rect x="1080" y="80" width="250" height="250" rx="14" stroke="#a9d2f5" stroke-width="2.6" stroke-opacity="0.918" fill="none"/><path d="M1112 132L1232 132" stroke="#a9d2f5" stroke-width="2.0" stroke-opacity="0.648" fill="none" stroke-linecap="round" stroke-linejoin="round"/><circle cx="1298" cy="132" r="3.4" fill="#a9d2f5" fill-opacity="0.432"/><path d="M1112 168L1282 168" stroke="#a9d2f5" stroke-width="2.0" stroke-opacity="0.648" fill="none" stroke-linecap="round" stroke-linejoin="round"/><circle cx="1298" cy="168" r="3.4" fill="#a9d2f5" fill-opacity="0.702"/><path d="M1112 204L1232 204" stroke="#a9d2f5" stroke-width="2.0" stroke-opacity="0.648" fill="none" stroke-linecap="round" stroke-linejoin="round"/><circle cx="1298" cy="204" r="3.4" fill="#a9d2f5" fill-opacity="0.432"/><path d="M1112 240L1282 240" stroke="#a9d2f5" stroke-width="2.0" stroke-opacity="0.648" fill="none" stroke-linecap="round" stroke-linejoin="round"/><circle cx="1298" cy="240" r="3.4" fill="#a9d2f5" fill-opacity="0.702"/><path d="M1112 276L1232 276" stroke="#a9d2f5" stroke-width="2.0" stroke-opacity="0.648" fill="none" stroke-linecap="round" stroke-linejoin="round"/><circle cx="1298" cy="276" r="3.4" fill="#a9d2f5" fill-opacity="0.432"/><path d="M1462 224 C1462 190 1492 176 1514 176 C1536 176 1548 190 1548 190" stroke="#a9d2f5" stroke-width="2.6" stroke-opacity="0.594" fill="none" stroke-linecap="round" stroke-linejoin="round"/><path d="M1448 200L1532 200" stroke="#a9d2f5" stroke-width="2.4" stroke-opacity="0.594" fill="none" stroke-linecap="round" stroke-linejoin="round"/><path d="M1448 222L1532 222" stroke="#a9d2f5" stroke-width="2.4" stroke-opacity="0.594" fill="none" stroke-linecap="round" stroke-linejoin="round"/><path d="M1514 176 L1470 288" stroke="#a9d2f5" stroke-width="2.6" stroke-opacity="0.594" fill="none" stroke-linecap="round" stroke-linejoin="round"/></g></svg>